<?xml version="1.0" standalone="no"?>
<!DOCTYPE svg PUBLIC "-//W3C//DTD SVG 20010904//EN"
 "http://www.w3.org/TR/2001/REC-SVG-20010904/DTD/svg10.dtd">
<svg version="1.0" xmlns="http://www.w3.org/2000/svg"
 width="640.000000pt" height="640.000000pt" viewBox="0 0 640.000000 640.000000"
 preserveAspectRatio="xMidYMid meet">
<metadata>
Created by potrace 1.16, written by Peter Selinger 2001-2019
</metadata>
<g transform="translate(0.000000,640.000000) scale(0.100000,-0.100000)"
fill="#11e03e" stroke="none">
<path d="M2857 5660 c-192 -18 -553 -92 -581 -120 -15 -15 13 -13 70 5 83 26
254 63 374 81 163 26 576 26 745 1 314 -47 585 -132 854 -266 55 -28 101 -53
101 -56 0 -3 -39 15 -87 39 -251 125 -558 217 -874 261 -148 20 -447 35 -496
25 -21 -5 -94 -13 -163 -20 -213 -20 -569 -97 -652 -141 -15 -8 -22 -8 -28 1
-15 24 -295 -115 -482 -239 -187 -123 -399 -308 -425 -369 -8 -18 -35 -59 -60
-90 -121 -149 -254 -399 -323 -610 -162 -494 -140 -976 67 -1461 153 -360 408
-667 728 -875 308 -201 555 -290 555 -200 0 58 -42 103 -327 347 -235 202
-366 348 -481 542 -23 39 -42 64 -42 56 0 -7 10 -30 22 -49 39 -63 -1 -23 -51
51 -107 159 -186 352 -217 527 -23 135 -15 516 14 680 100 554 362 951 795
1205 221 129 399 197 636 245 543 109 1126 35 1609 -205 395 -196 736 -489
961 -824 178 -266 298 -524 347 -748 46 -209 7 -554 -92 -820 -92 -247 -190
-400 -379 -588 -451 -451 -1192 -758 -2208 -916 -211 -32 -227 -36 -227 -50 0
-23 278 5 555 56 178 33 468 104 610 149 60 19 111 34 112 32 12 -11 -507
-196 -662 -236 -60 -16 -99 -29 -86 -29 48 -2 12 -11 -180 -46 -224 -41 -525
-81 -684 -90 -130 -8 -153 -13 -110 -27 62 -21 144 -26 265 -17 144 11 302 37
295 49 -6 10 13 16 75 25 112 16 379 70 525 106 285 71 504 143 770 251 61 25
128 51 150 58 112 36 437 224 610 352 61 45 148 119 194 165 47 46 88 83 93
83 15 0 191 214 250 303 67 103 186 342 217 437 11 36 29 101 40 145 16 64 20
73 20 43 2 -88 42 -3 61 127 15 106 12 360 -6 486 -109 781 -704 1516 -1513
1867 -41 18 -72 35 -69 37 3 3 50 -15 105 -40 289 -130 542 -304 791 -540 113
-108 142 -132 126 -102 -9 18 38 -37 110 -128 235 -297 393 -638 467 -1010 27
-138 37 -445 20 -580 -18 -136 -57 -307 -103 -455 -16 -54 -115 -246 -165
-324 -232 -359 -532 -614 -1056 -901 -38 -20 -66 -39 -63 -42 24 -25 454 232
641 382 195 156 340 312 469 503 298 441 398 952 291 1487 -35 175 -95 348
-184 530 -132 270 -292 486 -522 710 -425 413 -927 660 -1514 745 -161 23
-477 33 -628 20z m-1982 -1502 c-94 -291 -123 -644 -75 -943 17 -111 65 -284
110 -400 130 -331 327 -610 625 -885 121 -111 -24 -3 -173 129 -204 182 -411
513 -515 827 -122 368 -139 714 -53 1053 30 117 104 336 112 329 2 -2 -12 -52
-31 -110z m3625 -2542 c0 -18 -387 -243 -506 -294 -157 -66 -589 -210 -600
-200 -8 9 202 88 232 88 18 0 102 31 189 70 87 39 185 77 218 86 73 19 130 47
222 110 57 38 233 143 243 144 1 0 2 -2 2 -4z"/>
</g>
</svg>
